<?xml version="1.0" encoding="UTF-8" standalone="no"?>
<!-- Created with Inkscape (http://www.inkscape.org/) -->

<svg
   width="59.552582mm"
   height="69.650017mm"
   viewBox="0 0 59.552582 69.650017"
   version="1.1"
   id="svg5"
   inkscape:version="1.2.2 (b0a84865, 2022-12-01)"
   sodipodi:docname="drawing.svg"
   xml:space="preserve"
   xmlns:inkscape="http://www.inkscape.org/namespaces/inkscape"
   xmlns:sodipodi="http://sodipodi.sourceforge.net/DTD/sodipodi-0.dtd"
   xmlns="http://www.w3.org/2000/svg"
   xmlns:svg="http://www.w3.org/2000/svg"><sodipodi:namedview
     id="namedview7"
     pagecolor="#505050"
     bordercolor="#eeeeee"
     borderopacity="1"
     inkscape:showpageshadow="0"
     inkscape:pageopacity="0"
     inkscape:pagecheckerboard="0"
     inkscape:deskcolor="#505050"
     inkscape:document-units="mm"
     showgrid="false"
     inkscape:zoom="0.2102413"
     inkscape:cx="397.16269"
     inkscape:cy="563.63806"
     inkscape:window-width="3440"
     inkscape:window-height="1387"
     inkscape:window-x="2560"
     inkscape:window-y="218"
     inkscape:window-maximized="0"
     inkscape:current-layer="layer1" /><defs
     id="defs2"><clipPath
       clipPathUnits="userSpaceOnUse"
       id="clipPath1568-7"><ellipse
         style="fill:#00ff00;fill-opacity:0.342572;stroke:none;stroke-width:0.426223"
         id="ellipse1570-5"
         cx="113.31345"
         cy="126.36646"
         rx="44.651905"
         ry="44.781708" /></clipPath><clipPath
       clipPathUnits="userSpaceOnUse"
       id="clipPath1909"><path
         style="fill:#000000;fill-opacity:1;stroke-width:0.264583"
         d="m 114.06606,286.0555 c -1.26184,-0.0876 -2.37253,-0.23815 -2.4682,-0.33448 -0.0957,-0.0963 0.57955,-0.24273 1.5005,-0.32533 11.85544,-1.06326 15.1125,-1.48081 21.12133,-2.70768 1.81901,-0.37141 4.91463,-1.08842 6.87916,-1.59336 3.78578,-0.97306 13.34524,-4.03415 13.16405,-4.21533 -0.059,-0.059 -1.34842,0.31189 -2.86536,0.82424 -7.48377,2.52766 -17.55145,4.60649 -27.76119,5.73229 -3.73278,0.4116 -19.58892,0.41253 -22.62187,10e-4 -2.113528,-0.28655 -2.112155,-0.28676 0.92604,-0.1397 22.86958,1.10697 43.83815,-3.07382 63.16344,-12.59374 31.69655,-15.61418 55.16954,-43.87742 64.78663,-78.00793 0.51149,-1.81525 0.87549,-3.35496 0.80888,-3.42156 -0.0666,-0.0666 -0.20329,0.25311 -0.30375,0.71048 -0.10045,0.45738 -0.23621,0.77803 -0.30167,0.71257 -0.0655,-0.0655 0.022,-0.67919 0.19441,-1.36382 0.22492,-0.89321 0.38264,-1.14517 0.55842,-0.89208 0.16802,0.24193 0.19321,0.16837 0.0802,-0.2342 -0.0906,-0.32279 0.14369,-1.9623 0.52072,-3.64333 2.40882,-10.74017 3.71145,-25.82985 3.07549,-35.62645 -0.4972,-7.659 -1.96215,-17.24227 -3.33113,-21.79122 -0.50071,-1.66382 -0.33794,-0.59789 0.50843,3.32952 0.37871,1.75731 0.60606,3.50698 0.53288,4.10104 -0.0907,0.73616 -0.0603,0.88291 0.10476,0.50693 0.16516,-0.37609 0.22857,-0.0699 0.2192,1.05834 -0.007,0.87312 0.18862,3.36478 0.43526,5.53701 0.24663,2.17223 0.50042,5.50598 0.56397,7.40833 l 0.11554,3.45882 -0.26366,-3.04271 c -0.14501,-1.67349 -0.49046,-4.53099 -0.76766,-6.35 -0.52162,-3.42291 -0.50883,-2.67847 0.0477,2.77812 0.50847,4.98511 0.42511,17.90675 -0.1502,23.28334 -0.26471,2.47385 -0.59054,4.53871 -0.72406,4.58857 -0.13351,0.0499 -0.17099,0.52611 -0.0833,1.05833 0.1259,0.76398 0.0951,0.88413 -0.14628,0.5708 -0.23946,-0.31083 -0.27108,-0.14888 -0.14584,0.74708 0.11781,0.84281 0.0777,1.09317 -0.15222,0.95105 -0.2279,-0.14085 -0.26951,0.0697 -0.1542,0.78021 0.10722,0.66075 0.0666,0.91667 -0.12655,0.7973 -0.18797,-0.11618 -0.24376,0.10143 -0.16449,0.64156 0.066,0.44954 0.0224,0.75709 -0.0967,0.68342 -0.11919,-0.0737 -0.21671,0.0662 -0.21671,0.31074 0,0.82553 -1.60027,7.60945 -2.66109,11.28103 -2.58094,8.93278 -6.41626,18.16085 -10.78433,25.94794 -1.04244,1.85838 -2.08877,3.67409 -2.32518,4.0349 -0.23642,0.36081 -0.36461,0.65602 -0.28488,0.65602 0.26675,0 2.91971,-4.58645 5.12696,-8.86354 1.20157,-2.32833 2.1875,-4.14271 2.19097,-4.03196 0.0128,0.40826 -4.5451,9.27523 -6.25196,12.16269 -5.40175,9.13804 -11.4982,16.95068 -19.25672,24.6776 -4.87699,4.85712 -7.27583,6.92742 -12.82487,11.06838 -5.14471,3.83922 -10.38053,7.0949 -16.29661,10.13339 -4.20913,2.1618 -10.71926,5.13593 -11.20211,5.11765 -0.0962,-0.004 1.84909,-1.05492 4.32294,-2.33616 4.48009,-2.32028 8.63784,-4.75425 9.39271,-5.49853 0.35101,-0.34608 0.31532,-0.36069 -0.30874,-0.12637 -0.38809,0.14572 -1.42988,0.63056 -2.3151,1.07742 -0.88522,0.44685 -1.60949,0.76848 -1.60949,0.71472 0,-0.0538 1.10133,-0.72504 2.44739,-1.49172 13.63813,-7.76792 27.68153,-19.97363 34.55804,-30.03586 1.30202,-1.90522 2.63032,-4.07102 2.35293,-3.83646 -0.0861,0.0728 -2.2599,2.19267 -4.83078,4.71091 -3.99554,3.91374 -8.31825,7.72451 -8.76222,7.72451 -0.071,0 1.09763,-1.34358 2.59702,-2.98572 8.59719,-9.41573 14.03486,-17.12598 19.72627,-27.97053 3.58665,-6.83408 6.00436,-13.0595 8.63381,-22.23135 1.34227,-4.682 2.90871,-12.01836 2.72012,-12.73955 -0.0696,-0.2662 -0.0484,-0.43618 0.0472,-0.37774 0.0956,0.0584 0.19296,-0.67198 0.21643,-1.62316 0.0235,-0.95118 0.15819,-1.8025 0.29936,-1.89183 0.43228,-0.27353 0.96128,-5.76172 0.95926,-9.95199 -0.001,-2.76238 0.0555,-3.52642 0.18712,-2.51355 0.11428,0.87969 0.14398,0.19952 0.0751,-1.71979 -0.26852,-7.48187 -0.32428,-10.0012 -0.20349,-9.19427 0.0708,0.47294 0.2507,0.8599 0.39979,0.8599 0.16447,0 0.20999,-0.3902 0.11575,-0.99219 -0.0854,-0.5457 -0.4615,-3.4925 -0.83571,-6.54844 -0.78162,-6.3831 -1.6518,-11.33935 -2.78721,-15.875 -1.81957,-7.26874 -5.20441,-17.64297 -5.95653,-18.25625 -0.17846,-0.14552 -0.64536,-1.03848 -1.03754,-1.98437 -1.86887,-4.50742 -5.65002,-11.297803 -9.47244,-17.011107 -4.77809,-7.141699 -12.30683,-16.839284 -12.53705,-16.148644 -0.0442,0.13268 -1.5968,-1.257401 -3.45016,-3.089072 -5.98167,-5.911659 -13.37942,-11.602145 -21.54193,-16.570464 -3.00777,-1.830752 -10.69008,-5.773091 -13.57782,-6.967737 -7.10509,-2.939347 -15.29936,-5.494107 -21.96042,-6.846686 -8.59954,-1.746202 -9.59005,-1.883565 -16.66875,-2.311594 -8.88327,-0.537147 -15.73684,-0.414101 -19.843746,0.356266 -1.600729,0.300262 -4.160573,0.748353 -5.688541,0.995757 -23.615107,3.823693 -45.840561,15.253136 -63.449994,32.629167 -1.791509,1.767763 -3.349045,3.214115 -3.461189,3.214115 -0.330197,0 -6.043588,6.997592 -8.641076,10.583333 -4.000656,5.522762 -5.93027,8.459052 -7.1339526,10.85573 -0.6315604,1.257511 -2.0316956,3.883546 -3.1114152,5.835636 -3.4921733,6.31373 -5.79091819,12.07711 -8.2223071,20.61488 -3.1063384,10.90784 -4.3589369,18.22338 -4.9450874,28.88074 -0.5815835,10.57433 -0.7057019,11.34049 -0.7434273,4.58905 -0.034336,-6.14487 0.1779169,-9.81139 0.9036796,-15.61041 1.3510426,-10.79517 4.8307614,-23.62503 9.3581411,-34.50383 1.3723138,-3.29752 0.7333868,-2.35084 -0.8822618,1.30722 -5.9419257,13.45338 -9.2665953,27.02404 -10.5959871,43.25077 -0.2265166,2.7649 -0.4852339,5.89201 -0.5749266,6.94913 -0.4299696,5.06765 -1.0504366,0.23923 -0.8079856,-6.28767 0.472867,-12.72981 2.8877103,-24.66328 7.7070481,-38.08604 0.9585145,-2.66964 1.7036025,-4.89304 1.6557508,-4.9409 -0.1173036,-0.1173 -2.2402833,4.97714 -4.0378291,9.68944 -0.8550333,2.24149 -1.3999463,3.39647 -1.3107045,2.77813 0.2567048,-1.77866 -0.2739519,-0.56778 -1.3606266,3.10476 -0.5549426,1.87549 -1.0449541,3.30208 -1.0889146,3.1702 -0.04396,-0.13189 0.4670245,-2.12826 1.1355218,-4.4364 C -3.6175461,108.34622 3.6880928,93.600465 12.850082,81.373263 23.172898,67.59687 36.06838,56.082352 50.611358,47.655805 66.124455,38.667147 82.847886,33.454683 101.67594,31.739672 c 4.86598,-0.443232 16.00535,-0.379078 21.04777,0.121218 30.34291,3.010552 57.73914,16.185254 79.09702,38.037333 21.88771,22.394184 33.05329,47.754677 35.33939,80.266707 0.39417,5.6058 0.18185,17.94946 -0.39367,22.88645 -3.19393,27.39839 -12.89375,49.99705 -29.92432,69.71771 -12.95796,15.00474 -29.74568,27.01466 -48.21467,34.49271 -14.65136,5.9323 -33.16268,9.58531 -44.5614,8.7937 z m 41.32029,-9.55204 c 0.21828,-0.14106 0.27782,-0.25648 0.13229,-0.25648 -0.14552,0 -0.44317,0.11542 -0.66145,0.25648 -0.21829,0.14107 -0.27782,0.25648 -0.1323,0.25648 0.14553,0 0.44318,-0.11541 0.66146,-0.25648 z m 18.52084,-8.42274 c 18.4944,-10.54083 34.47537,-26.47685 45.1854,-45.05829 1.63715,-2.84039 6.14904,-11.71189 6.13683,-12.06655 -0.004,-0.11075 -1.11297,1.94175 -2.4648,4.56113 -9.47882,18.36673 -22.69205,33.66793 -39.72931,46.00736 -4.74792,3.43873 -7.33914,5.16033 -10.78177,7.16338 -1.70987,0.99486 -3.10885,1.85376 -3.10885,1.90865 0,0.14417 1.30697,-0.54621 4.7625,-2.51568 z m 58.07464,-74.21198 c 1.50029,-4.55925 2.37318,-8.0388 3.03652,-12.10434 0.71748,-4.39736 0.64499,-5.13808 -0.11473,-1.17239 -0.997,5.20426 -2.44294,10.71595 -4.51373,17.20557 -0.15257,0.47813 -0.14133,0.48242 0.13518,0.0515 0.16588,-0.25848 0.82142,-2.04965 1.45676,-3.98038 z m 0.58499,-45.22517 c -0.0631,-0.32742 -0.11466,-0.0595 -0.11466,0.59531 0,0.65485 0.0516,0.92274 0.11466,0.59532 0.0631,-0.32742 0.0631,-0.86321 0,-1.19063 z m -0.26144,-3.30365 c -0.0608,-0.40218 -0.1122,-0.13593 -0.11419,0.59167 -0.002,0.72761 0.0478,1.05667 0.11057,0.73125 0.0628,-0.32543 0.0644,-0.92074 0.004,-1.32292 z m -0.26772,-2.51718 c -0.0631,-0.32742 -0.11467,-0.0595 -0.11467,0.59531 0,0.65485 0.0516,0.92274 0.11467,0.59531 0.0631,-0.32742 0.0631,-0.8632 0,-1.19062 z m -0.26418,-2.11358 c -0.0633,-0.32912 -0.11747,-0.12215 -0.12041,0.45993 -0.003,0.58209 0.0488,0.85137 0.11507,0.5984 0.0662,-0.25296 0.0686,-0.72921 0.005,-1.05833 z m -0.26933,-1.98746 c -0.0666,-0.25466 -0.121,-0.0463 -0.121,0.46302 0,0.50932 0.0545,0.71768 0.121,0.46302 0.0665,-0.25466 0.0665,-0.67138 0,-0.92604 z m 0.52752,0.14883 c -0.0845,-0.21107 -0.14715,-0.14838 -0.15985,0.15985 -0.0115,0.27891 0.051,0.43518 0.13897,0.34726 0.0879,-0.0879 0.0973,-0.31612 0.0209,-0.50711 z m -1.23033,-4.63051 c -3.5209,-19.89833 -12.47463,-39.790777 -24.54002,-54.520403 -1.22179,-1.491588 -2.28191,-2.711979 -2.35583,-2.711979 -0.0739,0 0.56829,0.863203 1.42711,1.918229 2.96271,3.639563 7.78075,10.446017 7.91295,11.178645 0.0263,0.145521 0.95389,1.812396 2.06139,3.704167 4.8803,8.336251 8.80602,17.199611 11.63802,26.275951 1.26014,4.03864 3.14145,11.70099 3.74604,15.25719 0.27154,1.59719 0.53187,2.70582 0.57851,2.46364 0.0466,-0.24219 -0.16404,-1.84663 -0.46817,-3.56544 z m -0.0926,-9.12783 c -0.0845,-0.21106 -0.14716,-0.14837 -0.15986,0.15986 -0.0115,0.27891 0.0511,0.43518 0.13897,0.34726 0.0879,-0.0879 0.0973,-0.31612 0.0209,-0.50712 z m -0.26459,-1.05833 c -0.0845,-0.21107 -0.14715,-0.14837 -0.15985,0.15985 -0.0115,0.27892 0.0511,0.43519 0.13897,0.34727 0.0879,-0.0879 0.0973,-0.31613 0.0209,-0.50712 z m -0.52916,-1.85208 c -0.0845,-0.21107 -0.14716,-0.14838 -0.15986,0.15985 -0.0115,0.27891 0.0511,0.43518 0.13897,0.34727 0.0879,-0.0879 0.0973,-0.31613 0.0209,-0.50712 z M 197.76106,69.930034 c -1.08886,-1.355799 -4.93931,-5.090429 -7.97837,-7.738398 -12.65916,-11.030058 -31.99741,-21.44298 -47.36092,-25.502075 -4.7827,-1.263605 -12.75316,-2.816358 -14.2614,-2.778312 -1.43176,0.03612 -1.50217,0.01772 3.41348,0.891591 23.6848,4.210497 46.05815,15.840629 63.75817,33.142819 1.67475,1.63711 3.0857,2.976563 3.13544,2.976563 0.0497,0 -0.26814,-0.446485 -0.7064,-0.992188 z M 97.111877,282.93132 c 0.327421,-0.0631 0.863203,-0.0631 1.190625,0 0.327421,0.0631 0.05953,0.11466 -0.595313,0.11466 -0.654844,0 -0.922734,-0.0516 -0.595312,-0.11466 z m -2.116667,-0.25309 c 0.181901,-0.0734 0.479557,-0.0734 0.661458,0 0.181901,0.0734 0.03307,0.13346 -0.330729,0.13346 -0.363802,0 -0.51263,-0.0601 -0.330729,-0.13346 z m 12.63385,-0.87403 c -1.15454,-0.14794 -0.79375,-0.17233 1.32292,-0.0894 4.02753,0.15778 13.31225,-0.34525 18.4175,-0.99783 2.34172,-0.29932 4.30663,-0.49527 4.36647,-0.43543 0.13965,0.13965 -5.57059,0.92518 -9.08758,1.25013 -3.76871,0.34821 -13.10647,0.51765 -15.01931,0.27254 z m -22.67148,-0.45439 c 0.190995,-0.0764 0.419201,-0.067 0.507119,0.0209 0.08792,0.0879 -0.06835,0.15045 -0.347265,0.13897 -0.308227,-0.0127 -0.37092,-0.0754 -0.159854,-0.15986 z m -3.522265,-0.61611 c -4.02245,-0.92672 -13.893651,-4.31541 -13.555564,-4.6535 0.05777,-0.0578 1.583592,0.43881 3.390717,1.10349 2.837598,1.04371 8.853657,2.88451 12.281513,3.75792 1.857185,0.47321 0.08355,0.29899 -2.116666,-0.20791 z m 50.866145,-0.7013 c 0.1819,-0.0734 0.47956,-0.0734 0.66146,0 0.1819,0.0734 0.0331,0.13345 -0.33073,0.13345 -0.3638,0 -0.51263,-0.06 -0.33073,-0.13345 z m 1.32291,-0.26458 c 0.18191,-0.0734 0.47956,-0.0734 0.66146,0 0.1819,0.0734 0.0331,0.13345 -0.33073,0.13345 -0.3638,0 -0.51263,-0.0601 -0.33073,-0.13345 z m 1.60404,-0.2701 c 0.191,-0.0764 0.4192,-0.067 0.50712,0.0209 0.0879,0.0879 -0.0684,0.15045 -0.34727,0.13896 -0.30822,-0.0127 -0.37091,-0.0754 -0.15985,-0.15985 z m 1.32292,-0.26458 c 0.19099,-0.0764 0.4192,-0.067 0.50712,0.0209 0.0879,0.0879 -0.0684,0.15046 -0.34727,0.13897 -0.30823,-0.0127 -0.37092,-0.0754 -0.15985,-0.15985 z m -50.8,-2.11667 c 0.190995,-0.0764 0.419201,-0.067 0.507119,0.0209 0.08792,0.0879 -0.06835,0.15045 -0.347265,0.13896 -0.308227,-0.0127 -0.37092,-0.0754 -0.159854,-0.15985 z m -19.264973,-1.53905 c -0.363802,-0.20797 -0.542396,-0.37812 -0.396875,-0.37812 0.145521,0 0.56224,0.17015 0.926042,0.37812 0.363802,0.20797 0.542396,0.37812 0.396875,0.37812 -0.145521,0 -0.56224,-0.17015 -0.926042,-0.37812 z m 13.973307,0.21614 c 0.190995,-0.0764 0.4192,-0.067 0.507119,0.0209 0.08792,0.0879 -0.06835,0.15045 -0.347266,0.13897 -0.308226,-0.0127 -0.370919,-0.0754 -0.159853,-0.15986 z m -6.564974,-1.91399 c -7.583423,-2.54408 -12.862705,-4.88755 -19.579165,-8.6912 -3.197289,-1.81068 -8.995833,-5.50675 -8.995833,-5.73406 0,-0.0732 1.160859,0.62007 2.579687,1.54061 8.343191,5.41309 17.791837,9.89804 27.979686,13.28101 2.328333,0.77315 4.05474,1.40967 3.836458,1.41449 -0.218281,0.005 -2.837656,-0.81006 -5.820833,-1.81085 z m 38.56302,0.3205 c 0.32742,-0.0631 0.8632,-0.0631 1.19062,0 0.32743,0.0631 0.0595,0.11466 -0.59531,0.11466 -0.65484,0 -0.92273,-0.0516 -0.59531,-0.11466 z m 39.19304,-7.11714 c 0.9286,-0.35883 1.73512,-0.60565 1.79227,-0.54849 0.11892,0.11892 -2.88247,1.24735 -3.24321,1.21934 -0.13058,-0.0101 0.52234,-0.31202 1.45094,-0.67085 z m -101.98101,0.0132 c -0.493188,-0.39512 -0.489944,-0.40001 0.08172,-0.12298 0.327422,0.15867 0.595313,0.34383 0.595313,0.41147 0,0.20246 -0.137216,0.144 -0.677035,-0.28849 z m -4.503245,-2.70808 C 37.771508,259.7185 31.855573,255.04488 25.503883,248.8545 16.928266,240.49669 10.636705,232.53475 4.749794,222.59033 c -1.7154344,-2.89778 -6.0043909,-11.22924 -5.9892149,-11.63427 0.00415,-0.11086 0.87257194,1.46532 1.92981884,3.50261 2.08468636,4.01715 7.27821456,12.41537 10.26367506,16.59693 9.206031,12.89434 20.989236,24.25339 34.233327,33.00102 2.037292,1.34562 3.753776,2.49398 3.81441,2.55192 0.443913,0.42417 -0.651282,-0.2099 -3.835315,-2.22046 z m -1.037428,-5.76717 -0.79375,-0.68201 0.859896,0.56905 c 0.472942,0.31297 0.859895,0.62047 0.859895,0.68332 0,0.19805 -0.112043,0.12904 -0.926041,-0.57036 z m -1.488959,-1.1013 c -0.329107,-0.41965 -0.319749,-0.42901 0.0999,-0.0999 0.44073,0.34565 0.580888,0.56292 0.363125,0.56292 -0.05494,0 -0.2633,-0.20836 -0.463021,-0.46302 z m 139.781482,-7.83963 c 0.099,-0.11847 1.25112,-1.12658 2.56022,-2.24023 1.30911,-1.11366 3.60934,-3.14833 5.11164,-4.5215 l 2.73144,-2.49667 -2.64583,2.71802 c -1.45521,1.49491 -3.65786,3.50352 -4.89479,4.46357 -2.49209,1.93426 -3.13081,2.39763 -2.86268,2.07681 z M 212.33238,228.855 c 2.26583,-3.18542 5.59058,-8.83502 8.31646,-14.13177 1.49779,-2.91042 2.72599,-5.19937 2.72934,-5.08656 0.0108,0.36296 -3.34406,7.11104 -5.02802,10.11364 -1.81511,3.23642 -6.41839,10.3029 -6.90916,10.60621 -0.1734,0.10716 0.22773,-0.56852 0.89138,-1.50152 z M 66.312219,223.7262 c -2.13664,-1.49656 -2.194425,-9.12271 -0.08375,-11.05346 0.946086,-0.86545 1.53866,-0.91275 2.45037,-0.1956 1.124169,0.88428 1.643977,2.68203 1.643977,5.6857 0,3.93929 -0.939792,5.95312 -2.778124,5.95312 -0.371804,0 -0.926415,-0.17539 -1.232472,-0.38976 z m 2.118175,-2.08045 c 1.057169,-2.13278 0.414427,-8.11312 -0.871961,-8.11312 -1.472663,0 -1.991027,6.62789 -0.675404,8.63578 0.550121,0.83959 0.936884,0.70895 1.547365,-0.52266 z m 87.954916,2.00719 c -1.144,-1.30475 -1.38833,-2.24508 -1.39213,-5.35781 -0.003,-2.32378 0.11091,-3.33976 0.48137,-4.29992 1.11561,-2.89144 3.52803,-2.68022 4.57634,0.40067 0.716,2.10426 0.63651,5.98473 -0.16004,7.81241 -0.3355,0.7698 -0.82359,1.51394 -1.08464,1.65365 -0.7515,0.40219 -1.97785,0.29632 -2.4209,-0.209 z m 2.0852,-1.71979 c 1.11158,-2.11511 0.57002,-8.40052 -0.7238,-8.40052 -0.92833,0 -1.41829,1.61112 -1.40808,4.63021 0.0135,4.00385 1.04783,5.83304 2.13188,3.77031 z m -103.361235,-3.9026 v -5.82084 h 1.01329 1.013291 l 0.48659,3.24115 c 0.267626,1.78263 0.565517,3.46871 0.661979,3.74684 0.104894,0.30243 0.421071,-1.0003 0.786638,-3.24115 l 0.611248,-3.74684 h 1.020773 1.020774 v 5.82084 5.82083 h -0.661459 -0.661458 v -3.08681 c 0,-1.69774 -0.05999,-3.02681 -0.13331,-2.95349 -0.07332,0.0733 -0.256583,0.83731 -0.407247,1.69775 -0.740254,4.22755 -0.778513,4.34255 -1.444747,4.34255 -0.718018,0 -0.712933,0.0133 -1.367837,-3.57187 l -0.483317,-2.64584 -0.07454,3.10886 -0.07454,3.10885 H 55.76234 55.10928 Z m 18.256249,-0.0328 v -5.85359 l 1.470929,0.12198 c 2.083957,0.17282 2.624847,0.77107 2.647114,2.92783 0.01106,1.07203 0.172101,1.88353 0.46137,2.32502 1.054915,1.61 0.770512,4.77355 -0.52043,5.78901 -0.53245,0.41882 -1.076738,0.54335 -2.374874,0.54335 h -1.684109 z m 3.220312,4.0928 c 0.355182,-0.32143 0.483854,-0.81859 0.483854,-1.86948 0,-1.92464 -0.316447,-2.45514 -1.464516,-2.45514 H 74.68844 v 2.38125 2.38125 h 0.706771 c 0.388723,0 0.924504,-0.19704 1.190625,-0.43788 z m -0.516975,-6.59412 c 0.376076,-0.8254 0.03157,-1.52598 -0.81213,-1.6515 -0.510757,-0.076 -0.568291,0.0379 -0.568291,1.12448 0,1.03691 0.07614,1.20902 0.53484,1.20902 0.318034,0 0.660802,-0.27646 0.845581,-0.682 z m 4.704996,2.53409 v -5.82084 h 0.661458 0.661458 v 5.82084 5.82083 h -0.661458 -0.661458 z m 4.294319,0.0661 0.07131,-5.75468 0.727604,-0.0837 0.727605,-0.0837 v 5.17695 5.17694 h 1.322916 c 1.234723,0 1.322917,0.0441 1.322917,0.66146 0,0.65057 -0.03493,0.66146 -2.121826,0.66146 h -2.121826 z m 7.082763,-0.0661 v -5.82084 h 1.984375 1.984375 v 0.79375 c 0,0.77611 -0.0294,0.79375 -1.322916,0.79375 h -1.322917 v 1.5875 1.5875 h 0.926042 c 0.852545,0 0.926041,0.063 0.926041,0.79375 0,0.73076 -0.0735,0.79375 -0.926041,0.79375 h -0.926042 v 1.98438 1.98437 h 1.322917 c 1.234723,0 1.322916,0.0441 1.322916,0.66146 0,0.64676 -0.0441,0.66146 -1.984375,0.66146 h -1.984375 z m 10.054171,0 v -5.82084 h 0.66145 c 0.65914,0 0.66146,0.009 0.66146,2.51355 v 2.51354 h 0.92604 0.92605 v -2.51354 -2.51355 h 0.79375 0.79375 v 5.82084 5.82083 h -0.79375 -0.79375 v -2.51354 -2.51354 h -0.92605 -0.92604 v 2.51354 c 0,2.50472 -0.002,2.51354 -0.66146,2.51354 h -0.66145 z m 9.78958,3.18698 c 0,-2.40196 -0.0932,-2.89505 -1.05833,-5.60069 -0.58209,-1.63177 -1.05834,-3.06591 -1.05834,-3.18699 0,-0.3539 1.32814,-0.25291 1.45442,0.11059 0.80618,2.32061 1.27091,3.35554 1.45557,3.24142 0.12308,-0.0761 0.48089,-0.91092 0.79513,-1.85523 0.52659,-1.58239 0.63098,-1.71692 1.33228,-1.71692 h 0.76093 l -1.17937,3.32458 c -1.07785,3.0384 -1.17938,3.53946 -1.17938,5.82083 0,2.48629 -0.003,2.49626 -0.66145,2.49626 -0.66126,0 -0.66146,-7.9e-4 -0.66146,-2.63385 z m 6.61458,-3.18698 v -5.82084 h 1.46835 c 1.72288,0 2.80263,0.4821 3.24264,1.44782 0.20028,0.43956 0.31609,2.1508 0.31609,4.6704 v 3.97666 l -0.77339,0.77339 c -0.69802,0.69802 -0.94301,0.7734 -2.51355,0.7734 h -1.74014 z m 3.28839,4.08214 c 0.33532,-0.33531 0.41578,-1.0811 0.41578,-3.85385 0,-1.89094 -0.12325,-3.66838 -0.27389,-3.94985 -0.18989,-0.35481 -0.55507,-0.51178 -1.19063,-0.51178 h -0.91673 v 4.36563 4.36562 h 0.77485 c 0.42617,0 0.96195,-0.18709 1.19062,-0.41577 z m 4.64911,-4.08214 v -5.82084 l 1.65365,0.001 c 1.91538,0.001 3.26125,0.65052 3.52483,1.70072 0.0911,0.36287 0.0937,1.2893 0.006,2.05872 -0.1806,1.58262 -0.18069,1.49375 0.005,5.16926 l 0.13717,2.71198 h -0.67903 c -0.67754,-7e-5 -0.67903,-0.005 -0.67903,-2.3284 0,-2.60249 -0.18364,-2.96334 -1.50812,-2.96334 h -0.87313 v 2.64584 2.64583 h -0.79375 -0.79375 z m 3.38071,-1.20563 c 0.42958,-0.30089 0.58804,-0.67876 0.58804,-1.40229 0,-1.21968 -0.37645,-1.62542 -1.50812,-1.62542 h -0.87313 v 1.7198 c 0,1.61325 0.0373,1.71979 0.60259,1.71979 0.33142,0 0.8672,-0.18535 1.19062,-0.41188 z m 5.7348,1.27177 c 1.32283,-5.61288 1.37336,-5.75669 2.05078,-5.83621 0.48702,-0.0572 0.73647,0.0614 0.83487,0.39687 0.27665,0.9431 2.55092,10.70104 2.55092,10.94493 0,0.137 -0.29306,0.2491 -0.65126,0.2491 -0.67565,0 -0.67544,5.3e-4 -1.39848,-2.91042 -0.20994,-0.84517 -0.32239,-0.93292 -1.28773,-1.00489 l -1.0577,-0.0788 -0.47081,1.99707 c -0.4452,1.88844 -0.51042,1.99708 -1.19882,1.99708 h -0.72802 z m 2.62414,-0.52916 c -0.42486,-1.74968 -0.54286,-1.84986 -0.85706,-0.72761 -0.40036,1.42999 -0.394,1.45521 0.36724,1.45521 0.59353,0 0.64716,-0.0796 0.48982,-0.7276 z m 5.98743,1.25677 v -5.02709 h -0.92604 c -0.85254,0 -0.92604,-0.063 -0.92604,-0.79375 v -0.79375 h 2.51354 2.51354 v 0.79375 c 0,0.70556 -0.0882,0.79375 -0.79375,0.79375 h -0.79375 v 5.02709 5.02708 h -0.79375 -0.79375 z m 6.35,-0.79375 v -5.82084 h 0.66146 0.66146 v 5.82084 5.82083 h -0.66146 -0.66146 z m 12.7,0 v -5.82084 h 0.7303 c 0.69704,0 0.78439,0.15362 1.91823,3.37344 l 1.18793,3.37344 0.074,-3.37344 0.074,-3.37344 h 0.65356 0.65355 v 5.82084 5.82083 h -0.63012 c -0.56772,0 -0.74962,-0.33405 -1.8369,-3.37344 l -1.20679,-3.37343 -0.0152,3.37343 -0.0152,3.37344 h -0.79375 -0.79375 z m 60.07917,-8.86354 c 0,-0.14552 0.17015,-0.56224 0.37812,-0.92605 0.20797,-0.3638 0.37813,-0.54239 0.37813,-0.39687 0,0.14552 -0.17016,0.56224 -0.37813,0.92604 -0.20797,0.3638 -0.37812,0.5424 -0.37812,0.39688 z m 0.8742,-1.98438 c 0.23227,-0.85897 1.03147,-2.66168 1.13439,-2.55876 0.06,0.06 -0.19489,0.74951 -0.56634,1.53233 -0.37145,0.78282 -0.62707,1.24471 -0.56805,1.02643 z m 1.4964,-3.83646 c 0,-0.14552 0.11541,-0.44317 0.25648,-0.66145 0.14106,-0.21829 0.25648,-0.27782 0.25648,-0.1323 0,0.14552 -0.11542,0.44318 -0.25648,0.66146 -0.14107,0.21828 -0.25648,0.27781 -0.25648,0.13229 z m 0.79375,-2.11666 c 0,-0.14552 0.11541,-0.44318 0.25648,-0.66146 0.14106,-0.21828 0.25648,-0.27781 0.25648,-0.13229 0,0.14552 -0.11542,0.44317 -0.25648,0.66146 -0.14107,0.21828 -0.25648,0.27781 -0.25648,0.13229 z m -194.94353,-13.69219 0.06981,-8.53281 h 3.743235 c 5.301456,0 4.855723,-0.76993 4.855723,8.38741 v 7.37935 l -0.649433,0.64943 c -0.627931,0.62793 -0.772589,0.64943 -4.36929,0.64943 h -3.719859 z m 5.229185,0.0661 v -5.55625 h -0.926041 -0.926042 v 5.55625 5.55625 h 0.926042 0.926041 z m 5.291667,-0.1323 v -8.59895 h 3.277846 3.277846 l 0.1798,0.99218 c 0.09889,0.54571 0.242681,1.25438 0.319532,1.57483 0.132384,0.55201 0.0445,0.58679 -1.671709,0.66146 l -1.81144,0.0788 -0.07728,2.05052 -0.07728,2.05052 h 1.466339 1.466337 v 1.45521 1.45521 h -1.455209 -1.455208 v 1.85208 1.85208 h 1.753878 1.753878 l -0.182248,1.37386 c -0.100237,0.75563 -0.241668,1.47 -0.314285,1.5875 -0.07262,0.11751 -1.55376,0.21364 -3.291422,0.21364 h -3.159384 z m 9.442299,8.23591 c -0.07662,-0.19967 -0.221941,-0.91405 -0.322932,-1.5875 l -0.183619,-1.22445 h 2.014419 2.014416 v -1.98437 -1.98438 h -1.678784 c -2.495182,0 -2.55455,-0.11201 -2.55455,-4.82017 0,-5.10709 -0.04393,-5.04753 3.82887,-5.19089 1.556441,-0.0576 2.926892,-0.002 3.045447,0.12451 0.118554,0.12609 0.298378,0.85434 0.399613,1.61832 l 0.18406,1.38907 -1.810766,0.004 c -0.99592,0.002 -1.965766,0.10237 -2.155211,0.22253 -0.239199,0.15172 -0.320045,0.73662 -0.264583,1.91418 l 0.07986,1.6957 1.825059,0.15663 c 2.569302,0.2205 2.590159,0.26316 2.489837,5.09287 -0.103642,4.98951 -0.06052,4.93696 -4.051318,4.93696 -2.061493,0 -2.754252,-0.0879 -2.85982,-0.36305 z m 8.611848,-8.16976 0.06981,-8.53281 h 3.296457 3.29646 l 0.304757,1.52135 0.30476,1.52136 h -1.815279 -1.81528 v 2.11666 2.11667 h 1.322917 1.322916 v 1.45521 1.45521 h -1.322916 -1.322917 v 1.85208 1.85208 h 1.719792 c 0.945885,0 1.719791,0.1132 1.719791,0.25156 0,0.13836 -0.128929,0.85274 -0.286506,1.5875 l -0.28651,1.33594 h -3.289032 -3.289033 z m 8.73125,0 0.06981,-8.53281 h 3.763586 c 5.17003,0 4.94047,-0.2597 5.051473,5.71468 0.07015,3.77583 0.01527,4.61534 -0.336831,5.15272 -0.231349,0.35308 -0.596484,0.64197 -0.811411,0.64197 -0.214926,0 -0.388672,0.0298 -0.386103,0.0661 0.0026,0.0364 0.359759,1.19136 0.79375,2.56663 0.433993,1.37526 0.789077,2.59565 0.789077,2.71197 0,0.11633 -0.765884,0.2115 -1.701961,0.2115 -1.393423,0 -1.726282,-0.0839 -1.836116,-0.46302 -1.062913,-3.66854 -1.566645,-5.07647 -1.771068,-4.95013 -0.135908,0.084 -0.247105,1.33631 -0.247105,2.78293 V 196.07 h -1.723456 -1.723458 z m 5.493768,-2.57969 v -2.91041 H 73.365524 72.30719 v 2.91041 2.91042 h 1.058334 1.058333 z m 6.879166,4.10104 v -7.01145 H 80.24469 c -1.187725,0 -1.221161,-0.0891 -0.694865,-1.85209 l 0.355436,-1.19062 2.991681,-0.0752 c 1.645425,-0.0414 3.09712,0.0302 3.22599,0.15909 0.128871,0.12887 0.394375,0.84109 0.590013,1.58271 l 0.355701,1.3484 -1.096875,0.08 -1.096873,0.08 -0.07054,6.94531 -0.07054,6.94531 h -1.715397 -1.7154 z m 10.31875,-1.5875 v -8.59895 h 1.719791 1.719792 v 8.59895 8.59896 h -1.719792 -1.719791 z m 6.271027,0.19844 c -0.842783,-4.62028 -1.526977,-8.48982 -1.520431,-8.59896 0.01638,-0.27313 3.122644,-0.25187 3.292237,0.0225 0.07511,0.12153 0.436184,2.45996 0.802394,5.19651 0.36621,2.73654 0.70649,5.01619 0.75617,5.06586 0.0497,0.0497 0.35951,-2.02085 0.6885,-4.60119 0.82757,-6.49063 0.55942,-5.88213 2.5921,-5.88213 h 1.71213 l -0.14888,0.7276 c -0.0819,0.40018 -0.74808,4.00182 -1.48043,8.00365 -0.73235,4.00182 -1.39146,7.54393 -1.46468,7.87135 -0.12194,0.54525 -0.28298,0.59531 -1.91496,0.59531 h -1.781821 z m 13.45181,7.40833 c -0.0989,-0.5457 -0.24411,-1.26007 -0.32271,-1.5875 -0.13869,-0.57772 -0.0834,-0.59531 1.87015,-0.59531 h 2.01305 v -1.98437 -1.98438 h -1.70478 c -2.41281,0 -2.52855,-0.21383 -2.52855,-4.67185 0,-1.92268 0.11369,-3.7948 0.25264,-4.16026 0.34621,-0.9106 1.74104,-1.27475 4.49155,-1.1726 2.46241,0.0914 2.29099,-0.0494 2.74415,2.25468 l 0.16696,0.84892 -2.04171,0.0771 -2.04171,0.0771 -0.0777,1.91823 -0.0777,1.91823 h 1.54022 c 2.64986,0 2.7163,0.11715 2.7163,4.78953 0,3.85779 -0.0177,3.98345 -0.64943,4.6152 -0.60654,0.60653 -0.8318,0.64943 -3.41014,0.64943 h -2.76071 z m 9.5493,0.44382 -0.69714,-0.54837 v -7.48041 c 0,-9.21142 -0.37617,-8.48847 4.41678,-8.48847 4.64376,0 4.31447,-0.64935 4.31447,8.508 v 7.25876 l -0.64943,0.64943 c -0.61363,0.61363 -0.81585,0.64943 -3.66849,0.64943 -2.65366,0 -3.10342,-0.0664 -3.71619,-0.54837 z m 4.59453,-7.91829 v -5.55625 h -0.92604 -0.92605 v 5.55625 5.55625 h 0.92605 0.92604 z m 5.29166,-0.1323 v -8.59895 h 1.7198 1.71979 v 7.01145 7.01146 h 1.74847 c 1.67919,0 1.74281,0.0236 1.60557,0.59531 -0.0786,0.32743 -0.22382,1.0418 -0.32272,1.5875 l -0.1798,0.99219 h -3.14555 -3.14556 z m 9.32272,8.32471 c -0.32954,-0.13239 -0.7183,-0.55406 -0.86391,-0.93705 -0.16056,-0.42229 -0.23714,-3.679 -0.19459,-8.27533 l 0.0702,-7.57899 1.6493,-0.0787 1.6493,-0.0787 0.0705,7.09012 0.0705,7.09011 0.85555,0.0826 0.85554,0.0826 0.0705,-7.09404 0.0705,-7.09404 h 1.71979 1.71979 l 0.079,7.27604 c 0.0859,7.91085 -0.0433,8.97839 -1.14733,9.48142 -0.79424,0.36188 -5.79496,0.38729 -6.67456,0.0339 z m 11.31478,-6.73721 v -7.01145 h -1.05833 c -1.18773,0 -1.22116,-0.0891 -0.69486,-1.85209 l 0.35543,-1.19062 2.99168,-0.0752 c 1.64543,-0.0414 3.09712,0.0302 3.22599,0.15909 0.12887,0.12887 0.39438,0.84109 0.59001,1.58271 l 0.35571,1.3484 -1.09688,0.08 -1.09687,0.08 -0.0705,6.94531 -0.0705,6.94531 h -1.7154 -1.7154 z m 7.14375,-1.60012 v -8.61158 l 1.65365,0.0788 1.65364,0.0788 0.0698,8.53281 0.0698,8.53281 h -1.72346 -1.72346 z m 5.784,8.10615 c -0.62446,-0.50529 -0.62464,-0.50725 -0.70336,-7.58771 -0.0551,-4.96067 0.0138,-7.30562 0.23006,-7.8278 0.42524,-1.02663 1.69297,-1.35226 4.81987,-1.23804 3.97375,0.14516 3.76006,-0.34304 3.76006,8.59028 v 7.2916 l -0.74236,0.63855 c -0.69031,0.59378 -0.95259,0.63855 -3.741,0.63855 -2.55732,0 -3.09057,-0.0744 -3.62327,-0.50543 z m 4.53475,-7.96123 v -5.55625 h -0.92604 -0.92604 v 5.37986 c 0,2.95892 0.0794,5.45923 0.17639,5.55625 0.097,0.097 0.51373,0.17639 0.92604,0.17639 h 0.74965 z m 5.29167,-0.14492 v -8.61158 l 1.65364,0.0788 1.65365,0.0788 0.83755,3.175 0.83756,3.175 0.0223,-3.24115 0.0223,-3.24114 h 1.71979 1.71979 v 8.59895 8.59896 h -1.70959 -1.70959 l -0.29102,-1.12448 c -0.16005,-0.61846 -0.57071,-2.13651 -0.91257,-3.37343 l -0.62156,-2.24896 -0.0237,3.37343 -0.0237,3.37344 h -1.5875 -1.5875 z m 10.86984,7.27564 c -0.15758,-0.73476 -0.28651,-1.44914 -0.28651,-1.5875 0,-0.13836 0.89297,-0.25156 1.98438,-0.25156 h 1.98437 v -1.98437 -1.98438 h -1.67878 c -2.49518,0 -2.55455,-0.11201 -2.55455,-4.82017 0,-5.17948 -0.061,-5.1017 3.9987,-5.1017 h 2.98752 l 0.30654,1.52135 0.30655,1.52136 h -1.91518 c -2.34598,0 -2.5651,0.20448 -2.45686,2.29278 l 0.08,1.54367 1.82506,0.15663 c 2.5693,0.2205 2.59016,0.26316 2.48984,5.09287 -0.10367,4.99062 -0.0596,4.93696 -4.0577,4.93696 h -2.72689 z m 43.9361,-0.51614 c 0,-0.21828 0.10232,-0.635 0.22739,-0.92604 0.14333,-0.33355 0.22739,-0.38245 0.22739,-0.13229 0,0.21828 -0.10232,0.635 -0.22739,0.92604 -0.14333,0.33354 -0.22739,0.38245 -0.22739,0.13229 z m 0.52916,-1.85208 c 0,-0.21829 0.10233,-0.635 0.2274,-0.92605 0.14333,-0.33354 0.22739,-0.38245 0.22739,-0.13229 0,0.21828 -0.10233,0.635 -0.22739,0.92604 -0.14333,0.33355 -0.2274,0.38245 -0.2274,0.1323 z M 105.24781,162.29676 c -4.52318,-0.95915 -9.293049,-3.59712 -13.262606,-7.33486 -5.493813,-5.17298 -8.538892,-10.69045 -9.377351,-16.99109 -0.351192,-2.63905 -0.236194,-7.63348 0.185473,-8.05514 0.437052,-0.43706 1.698656,1.74897 3.135272,5.43259 1.42993,3.66647 2.385375,5.46979 4.038481,7.62227 2.650048,3.45057 7.425793,6.08948 7.688371,4.24832 0.05784,-0.40554 -0.179046,-0.72527 -0.839978,-1.13375 -1.427795,-0.88243 -3.746635,-3.54419 -4.529828,-5.19972 -0.715248,-1.51191 -1.140391,-3.94173 -0.830829,-4.74844 0.131332,-0.34224 0.672804,0.0778 2.482567,1.92597 2.691574,2.74865 3.386725,3.24294 9.286298,6.60306 2.42296,1.38 4.66365,2.74705 4.97931,3.03787 1.50942,1.39066 2.41372,5.10196 2.64656,10.86161 l 0.16846,4.16718 -1.95906,-0.0216 c -1.07748,-0.0119 -2.79249,-0.19831 -3.81114,-0.41431 z m 7.54063,-2.68151 c 0,-3.71381 0.34796,-6.55473 1.10474,-9.01954 0.71245,-2.32045 1.82347,-3.3513 6.16746,-5.72245 5.83399,-3.18445 8.72467,-5.35953 11.23084,-8.45059 l 0.63053,-0.77767 0.23858,0.64496 c 0.88151,2.38295 -2.02734,7.80264 -5.2602,9.80066 -0.9238,0.57094 -1.13298,1.28833 -0.52322,1.79438 0.43407,0.36025 2.12617,-0.16841 3.42823,-1.07107 3.59657,-2.49337 5.81887,-5.65148 7.99761,-11.36538 1.04038,-2.7285 2.40508,-5.07019 2.8672,-4.91986 1.05131,0.34199 0.72182,8.3564 -0.49225,11.97304 -1.46753,4.37171 -3.93512,8.21254 -7.58783,11.81059 -5.12996,5.05317 -11.16757,7.97768 -17.222,8.34202 l -2.57969,0.15524 z m 121.02168,-2.04199 c 2.6e-4,-2.32833 0.0408,-3.24541 0.0899,-2.03796 0.0491,1.20746 0.0489,3.11246 -5.3e-4,4.23333 -0.0495,1.12088 -0.0897,0.13296 -0.0893,-2.19537 z m -0.0555,-12.43542 c 0.005,-0.43656 0.0647,-0.58312 0.13177,-0.32569 0.0671,0.25743 0.0627,0.61462 -0.01,0.79375 -0.0725,0.17913 -0.12736,-0.0315 -0.12197,-0.46806 z m -0.25478,-2.51354 c 0,-0.50932 0.0545,-0.71768 0.121,-0.46302 0.0665,0.25466 0.0665,0.67138 0,0.92604 -0.0666,0.25466 -0.121,0.0463 -0.121,-0.46302 z M 107.6023,142.25717 c -10.309465,-1.68902 -18.413211,-8.39256 -21.478149,-17.76704 -0.287301,-0.87875 -0.604443,-2.08354 -0.70476,-2.67732 l -0.182399,-1.0796 2.200214,0.66716 c 1.84898,0.56066 2.749291,0.66954 5.639795,0.68205 2.988352,0.0129 3.647842,-0.0657 5.027083,-0.5994 0.873125,-0.33786 1.944686,-0.61362 2.381246,-0.61281 3.48194,0.006 18.87029,-0.54013 21.29896,-0.75655 5.69459,-0.50744 10.37275,-1.54406 11.65539,-2.58268 0.90125,-0.72979 0.54151,-1.70176 -0.87104,-2.35346 -1.08989,-0.50283 -3.64694,-1.23304 -3.76089,-1.07399 -0.0308,0.0429 -0.49344,0.80953 -1.02819,1.70354 -0.598,0.99975 -1.20065,1.6826 -1.56554,1.77387 -2.41988,0.60529 -14.31079,0.78943 -17.63402,0.27309 l -0.90117,-0.14002 2.48345,-2.49381 c 2.34591,-2.35571 2.441,-2.49381 1.71719,-2.49381 -0.7169,0 -0.66545,-0.0707 0.79898,-1.09788 0.86087,-0.60383 1.82065,-1.16938 2.13284,-1.25677 0.31218,-0.0874 4.2918,-3.70115 8.84358,-8.03057 8.53839,-8.121276 9.1886,-8.615568 10.8133,-8.220341 0.37267,0.09065 1.19547,0.517887 1.82846,0.949402 1.33055,0.907055 2.01279,2.256152 1.80099,3.561336 -0.0785,0.483624 -1.74969,3.465853 -3.71379,6.627173 -1.9641,3.16132 -3.64139,5.93195 -3.72731,6.15696 -0.12555,0.32879 0.33787,0.52822 2.36038,1.0158 3.21747,0.77566 5.1159,1.70079 5.34245,2.60346 0.54486,2.17088 -0.60328,8.17443 -2.26358,11.83614 -2.02869,4.47419 -6.44718,9.45721 -10.48805,11.82807 -5.48742,3.21957 -12.09788,4.52584 -18.00542,3.558 z m 7.03824,-7.30578 v -2.38125 h 2.24896 2.24896 v -1.85209 -1.85208 h -2.23866 -2.23866 l -0.0764,-2.31511 -0.0765,-2.3151 -1.91823,-0.0777 -1.91823,-0.0777 v 2.39284 2.39284 h -2.38125 -2.38125 v 1.85208 1.85209 h 2.38125 2.38125 v 2.38125 2.38125 h 1.98438 1.98437 z m 7.30205,-25.94464 c 3.33267,-3.35549 6.10347,-6.14791 6.15733,-6.20538 0.0539,-0.0575 0.02,-0.41521 -0.0754,-0.79497 -0.34036,-1.35607 -1.2061,-0.73203 -7.34729,5.29603 -3.26154,3.20146 -6.00462,6.01552 -6.09573,6.25348 -0.19196,0.50136 0.4578,1.55173 0.95992,1.55173 0.18795,0 3.06846,-2.7454 6.40114,-6.10089 z m 8.99416,-8.3189 c 0.40148,-0.61275 0.40148,-0.710181 0,-1.322921 -0.76764,-1.171554 -2.27329,-0.733454 -2.27329,0.661461 0,1.39491 1.50565,1.83301 2.27329,0.66146 z m 102.2887,39.68749 c 0.005,-0.43656 0.0647,-0.58312 0.13177,-0.32569 0.0671,0.25743 0.0627,0.61462 -0.01,0.79375 -0.0725,0.17913 -0.12737,-0.0315 -0.12197,-0.46806 z m -0.26458,-1.85208 c 0.005,-0.43656 0.0647,-0.58313 0.13177,-0.32569 0.0671,0.25743 0.0627,0.61461 -0.01,0.79375 -0.0725,0.17913 -0.12736,-0.0315 -0.12197,-0.46806 z m -0.27439,-1.71979 c 0,-0.3638 0.06,-0.51263 0.13345,-0.33073 0.0734,0.1819 0.0734,0.47956 0,0.66146 -0.0734,0.1819 -0.13345,0.0331 -0.13345,-0.33073 z M -9.9573342,130.8283 c 0.012695,-0.30823 0.075391,-0.37092 0.1598525,-0.15986 0.076431,0.191 0.067031,0.4192 -0.020889,0.50712 -0.087919,0.0879 -0.1504529,-0.0683 -0.1389645,-0.34726 z m 0.2645833,-1.05834 c 0.012695,-0.30822 0.075391,-0.37092 0.1598526,-0.15985 0.07643,0.19099 0.067031,0.4192 -0.020889,0.50712 -0.087919,0.0879 -0.1504529,-0.0684 -0.1389636,-0.34727 z m 0.2645834,-1.05833 c 0.012695,-0.30823 0.075391,-0.37092 0.1598525,-0.15985 0.07643,0.19099 0.067031,0.4192 -0.020889,0.50712 -0.087919,0.0879 -0.1504529,-0.0684 -0.1389635,-0.34727 z m 98.8009815,-7.64404 c -0.873124,-0.19138 -2.390565,-0.67059 -3.372093,-1.0649 l -1.784593,-0.71692 0.461677,-0.7908 c 0.76568,-1.31152 4.121451,-4.3203 5.655804,-5.07099 2.011923,-0.98435 4.251298,-1.34009 6.207934,-0.98618 1.566826,0.28341 5.928147,2.2357 5.928147,2.65367 0,0.28866 -3.542788,1.23747 -6.085418,1.62977 -3.345703,0.5162 -3.555814,0.67136 -1.21699,0.89869 2.045083,0.19877 5.722058,0.0587 7.037828,-0.26814 0.5819,-0.14453 0.53417,-0.0477 -0.39688,0.80534 -3.025711,2.77212 -7.88164,3.90863 -12.435416,2.91046 z m -4.365624,-5.20872 c 0,-0.93771 1.102352,-1.95361 2.815325,-2.59451 1.910305,-0.71474 1.931807,-0.6945 0.446087,0.41987 -0.70237,0.52682 -1.723522,1.38441 -2.269225,1.90578 l -0.992187,0.94794 z m 14.552082,-3.55078 c -0.800364,-0.34308 -1.663567,-0.62744 -1.918229,-0.63191 -0.981966,-0.0172 -0.405754,-0.53729 0.595313,-0.53729 0.582083,0 1.051552,-0.0893 1.043265,-0.19844 -0.0083,-0.10914 -0.599519,-0.64353 -1.313849,-1.18753 -2.959061,-2.25347 -5.262997,-6.83369 -5.944764,-11.81816 l -0.195615,-1.43017 1.733915,0.161917 c 4.007628,0.374237 7.085562,1.626113 9.512072,3.868813 2.46456,2.27786 3.63164,5.18815 3.63164,9.05604 0,1.12501 0.11906,2.11905 0.26459,2.20898 0.14552,0.0899 0.26458,-0.0757 0.26458,-0.36811 0,-0.2924 0.17762,-0.63103 0.39471,-0.75252 0.31561,-0.17663 0.34212,-0.40424 0.13229,-1.13588 -0.14433,-0.50325 -0.25991,-1.92781 -0.25684,-3.1657 0.009,-3.76509 1.47036,-6.986616 4.71055,-10.386639 0.79741,-0.836744 1.59612,-1.521354 1.77491,-1.521354 0.51946,0 2.21807,3.728548 2.66804,5.856533 0.90704,4.28951 -0.59191,8.0798 -4.22579,10.68543 -0.80757,0.57905 -1.47403,1.20166 -1.48101,1.38356 -0.009,0.24123 -0.71464,0.33073 -2.60662,0.33073 -2.58682,0 -2.59626,-0.002 -3.43959,-0.8725 -0.98418,-1.01542 -1.04237,-1.24417 -0.31648,-1.24417 0.77018,0 0.66785,-0.20808 -0.6902,-1.40349 -1.19719,-1.0538 -3.75992,-3.92 -4.662987,-5.21514 l -0.45839,-0.65741 0.247121,0.71107 c 0.781386,2.2484 2.957026,5.7984 4.687156,7.64805 l 1.21429,1.29817 -1.95443,-0.0296 c -1.41499,-0.0214 -2.3561,-0.20173 -3.409648,-0.65333 z m 10.461408,-1.70231 c 0.34997,-0.13306 0.69106,-0.51403 0.75797,-0.8466 0.0669,-0.33257 0.25467,-1.34802 0.41723,-2.25655 0.16257,-0.90854 0.51247,-2.30932 0.77755,-3.11285 0.69925,-2.11957 0.0428,-1.40214 -1.41212,1.5434 -1.49336,3.02326 -2.0539,5.07234 -1.63958,5.99356 0.29428,0.65435 0.29499,0.65395 0.37874,-0.21173 0.0609,-0.62991 0.25806,-0.93352 0.72021,-1.10923 z"
         id="path1911"
         clip-path="url(#clipPath1568-7)"
         transform="translate(-191.01615,-15.103177)" /></clipPath><clipPath
       clipPathUnits="userSpaceOnUse"
       id="clipPath2071"><circle
         style="fill:#000000;fill-opacity:1;stroke:none;stroke-width:0.675459"
         id="circle2073"
         cx="-78.761032"
         cy="110.20496"
         r="39.736958"
         clip-path="url(#clipPath1909)"
         transform="translate(-212.77801,-63.27712)" /></clipPath></defs><g
     inkscape:label="Layer 1"
     inkscape:groupmode="layer"
     id="layer1"
     transform="translate(321.75199,-15.249914)"><rect
       style="fill:#000000;fill-opacity:1;stroke:none;stroke-width:0.375958"
       id="rect1965"
       width="59.552616"
       height="69.650017"
       x="-321.75201"
       y="15.249914"
       clip-path="url(#clipPath2071)" /></g></svg>
